<?xml version="1.0" encoding="UTF-8" standalone="no"?>
<svg
   xmlns:dc="http://purl.org/dc/elements/1.1/"
   xmlns:cc="http://creativecommons.org/ns#"
   xmlns:rdf="http://www.w3.org/1999/02/22-rdf-syntax-ns#"
   xmlns:svg="http://www.w3.org/2000/svg"
   xmlns="http://www.w3.org/2000/svg"
   viewBox="0 0 828.76752 224.315"
   height="224.315"
   width="828.76752"
   xml:space="preserve"
   version="1.1"
   id="svg2"><metadata
     id="metadata8"><rdf:RDF><cc:Work
         rdf:about=""><dc:format>image/svg+xml</dc:format><dc:type
           rdf:resource="http://purl.org/dc/dcmitype/StillImage" /></cc:Work></rdf:RDF></metadata><defs
     id="defs6"><clipPath
       id="clipPath16"
       clipPathUnits="userSpaceOnUse"><path
         id="path18"
         d="m 0,179.452 663.014,0 L 663.014,0 0,0 0,179.452 Z" /></clipPath></defs><g
     transform="matrix(1.25,0,0,-1.25,0,224.315)"
     id="g10"><g
       id="g12"><g
         clip-path="url(#clipPath16)"
         id="g14"><g
           transform="translate(62.6157,91.335)"
           id="g20"><path
             id="path22"
             style="fill:#FFFFFF;fill-opacity:1;fill-rule:evenodd;stroke:none"
             d="m 0,0 c 0,0 22.866,-19.028 24.512,-27.69 0,0 23.739,39.981 55.617,50.42 0,0 -38.643,-9.177 -55.553,-42.216 0,0 -10.565,14.382 -24.576,19.486 M 5.982,10.914 C 17.588,6.56 23.875,-5.048 23.875,-5.048 39.348,31.705 97.86,37.587 97.86,37.587 90.119,35.486 84.809,15.506 84.809,15.506 83.358,7.283 75.861,-7.225 75.861,-7.225 57.243,-35.997 31.613,-32.854 31.613,-32.854 c -44.974,0 -39.239,55.09 -39.239,55.09 C -7.455,17.847 5.982,10.914 5.982,10.914" /></g><g
           transform="translate(226.3887,83.2148)"
           id="g24"><path
             id="path26"
             style="fill:#FFFFFF;fill-opacity:1;fill-rule:nonzero;stroke:none"
             d="m 0,0 c -0.651,-7.798 -3.576,-13.909 -8.772,-18.325 -5.329,-4.289 -12.347,-6.43 -21.051,-6.43 -10.136,0 -17.868,3.049 -23.196,9.16 -5.329,5.85 -7.991,14.49 -7.991,25.925 0,11.694 2.729,20.466 8.187,26.315 5.585,6.106 13.644,9.161 24.169,9.161 8.577,0 15.399,-2.147 20.467,-6.436 C -3.38,35.212 -0.651,29.362 0,21.828 l -8.382,0 c -3.118,0 -5.329,1.366 -6.627,4.093 -0.91,1.69 -2.017,3.183 -3.314,4.485 -2.6,1.949 -6.042,2.923 -10.331,2.923 -5.978,0 -10.592,-1.948 -13.838,-5.849 -3.119,-3.897 -4.678,-9.614 -4.678,-17.15 0,-7.281 1.559,-12.864 4.678,-16.765 2.988,-4.027 7.471,-6.042 13.449,-6.042 4.157,0 7.601,1.04 10.33,3.12 2.467,1.948 4.222,5.067 5.264,9.357 L 0,0 Z" /></g><g
           transform="translate(247.0977,99.001)"
           id="g28"><path
             id="path30"
             style="fill:#FFFFFF;fill-opacity:1;fill-rule:nonzero;stroke:none"
             d="m 0,0 c -2.73,-2.992 -3.966,-7.438 -3.704,-13.354 0.258,-5.914 1.363,-10.038 3.311,-12.375 0.782,-1.039 2.145,-1.917 4.093,-2.629 1.953,-0.716 3.931,-0.782 5.945,-0.197 2.014,0.585 3.805,2.045 5.365,4.386 1.559,2.337 2.402,6.107 2.533,11.305 0,4.678 -0.751,8.185 -2.241,10.527 C 13.804,0 12.083,1.494 10.134,2.145 8.187,2.791 6.238,2.827 4.286,2.241 2.337,1.655 0.904,0.908 0,0 m -9.356,-34.303 c -2.731,2.336 -4.68,5.487 -5.849,9.452 -1.169,3.962 -1.754,8.09 -1.754,12.376 0,3.507 0.487,7.019 1.462,10.528 0.974,3.507 2.502,6.429 4.581,8.77 3.377,3.898 7.728,6.203 13.061,6.919 5.325,0.712 10.134,0.293 14.424,-1.266 4.936,-1.949 8.575,-5.33 10.912,-10.134 2.21,-4.289 3.315,-9.296 3.315,-15.01 0,-4.162 -0.458,-7.735 -1.362,-10.724 -0.913,-2.988 -2.084,-5.52 -3.513,-7.6 -3.119,-4.29 -7.081,-6.954 -11.89,-7.989 -4.285,-1.171 -8.61,-1.267 -12.96,-0.293 -4.355,0.973 -7.828,2.628 -10.427,4.971" /></g><g
           transform="translate(327.2578,60.0195)"
           id="g32"><path
             id="path34"
             style="fill:#FFFFFF;fill-opacity:1;fill-rule:nonzero;stroke:none"
             d="m 0,0 -6.824,0 c -1.948,0 -3.543,0.61 -4.774,1.853 -1.236,1.23 -1.852,2.826 -1.852,4.774 l 0,26.506 c 0,3.119 -0.944,5.394 -2.827,6.823 -1.885,1.428 -3.996,2.145 -6.336,2.145 -2.339,0 -4.419,-0.717 -6.236,-2.145 -1.821,-1.429 -2.73,-3.704 -2.73,-6.823 l 0,-33.133 -13.644,0 0,30.407 c 0,8.832 2.306,14.746 6.919,17.736 4.611,2.987 9.713,4.612 15.302,4.874 5.716,0 10.98,-1.494 15.789,-4.483 C -2.408,45.543 0,39.502 0,30.407 L 0,0 Z" /></g><g
           transform="translate(354.3975,60.0195)"
           id="g36"><path
             id="path38"
             style="fill:#FFFFFF;fill-opacity:1;fill-rule:nonzero;stroke:none"
             d="m 0,0 c -4.288,-0.263 -8.936,-0.196 -13.938,0.191 -5.002,0.39 -7.504,3.575 -7.504,9.555 l 0,57.306 7.017,0 c 1.687,0 3.183,-0.651 4.483,-1.948 1.296,-1.302 1.949,-2.862 1.949,-4.679 l 0,-8.772 7.993,0 0,-2.729 c 0,-1.947 -0.653,-3.543 -1.951,-4.775 -1.3,-1.236 -2.86,-1.851 -4.677,-1.851 l -1.365,0 0,-28.848 c 0,-2.215 1.299,-3.316 3.899,-3.316 L 0,10.134 0,0 Z" /></g><g
           transform="translate(387.5801,86.1367)"
           id="g40"><path
             id="path42"
             style="fill:#FFFFFF;fill-opacity:1;fill-rule:nonzero;stroke:none"
             d="m 0,0 c -1.822,-0.908 -4.355,-1.756 -7.604,-2.533 l -4.48,-0.975 c -2.34,-0.65 -4.031,-1.498 -5.07,-2.533 -0.91,-1.433 -1.366,-2.861 -1.366,-4.29 0,-1.948 0.585,-3.508 1.756,-4.678 1.169,-1.039 2.858,-1.559 5.068,-1.559 3.637,0 6.495,1.04 8.577,3.119 C -1.042,-11.371 0,-8.514 0,-4.875 L 0,0 Z m 3.119,-23.977 c -2.73,-1.428 -5.624,-2.302 -8.676,-2.629 -3.052,-0.324 -5.748,-0.486 -8.088,-0.486 -4.677,0 -8.77,1.268 -12.281,3.8 -3.508,2.534 -5.261,6.724 -5.261,12.572 0,5.456 1.587,9.357 4.774,11.695 3.183,2.34 7.243,3.9 12.184,4.678 0.648,0 1.428,0.096 2.338,0.292 0.908,0.197 1.95,0.358 3.12,0.49 5.716,0.777 8.574,2.463 8.574,5.067 0,1.947 -1.006,3.215 -3.02,3.8 -2.016,0.586 -3.869,0.879 -5.554,0.879 -1.823,0 -3.445,-0.264 -4.874,-0.783 -1.432,-0.519 -2.47,-1.494 -3.119,-2.921 l -13.06,0 c 0.517,4.027 2.339,7.337 5.458,9.94 3.51,2.989 8.509,4.482 15.009,4.482 7.275,0 12.734,-1.236 16.375,-3.704 3.765,-2.599 5.652,-6.238 5.652,-10.916 l 0,-17.735 c 0,-5.202 -0.946,-9.26 -2.826,-12.183 -1.887,-2.925 -4.128,-5.041 -6.725,-6.338" /></g><g
           transform="translate(436.1602,113.6211)"
           id="g44"><path
             id="path46"
             style="fill:#FFFFFF;fill-opacity:1;fill-rule:nonzero;stroke:none"
             d="m 0,0 -9.355,-28.458 18.712,0 L 0,0 Z m -3.117,13.45 10.915,0 24.366,-67.052 -14.62,0 -4.482,13.838 -26.121,0 -4.289,-13.838 -14.619,0 22.223,62.566 c 1.168,2.988 3.376,4.486 6.627,4.486" /></g><g
           transform="translate(473.4395,60.0195)"
           id="g48"><path
             id="path50"
             style="fill:#FFFFFF;fill-opacity:1;fill-rule:nonzero;stroke:none"
             d="m 0,0 0,10.331 27.873,30.795 -19.686,0 c -1.822,0 -3.381,0.616 -4.679,1.853 -1.3,1.232 -1.948,2.76 -1.948,4.583 l 0,4.285 42.492,0 0,-11.109 -27.483,-29.433 28.458,0 L 45.027,0 0,0 Z" /></g><g
           transform="translate(567.8281,111.8662)"
           id="g52"><path
             id="path54"
             style="fill:#FFFFFF;fill-opacity:1;fill-rule:nonzero;stroke:none"
             d="m 0,0 0,-30.407 c 0,-9.226 -2.407,-15.272 -7.212,-18.129 -4.809,-2.857 -10.073,-4.285 -15.789,-4.285 -5.589,0.258 -10.69,1.817 -15.302,4.674 -4.613,2.857 -6.92,8.772 -6.92,17.74 l 0,30.407 13.645,0 0,-33.138 c 0,-3.119 0.908,-5.39 2.73,-6.818 1.818,-1.434 3.897,-2.145 6.236,-2.145 2.34,0 4.451,0.711 6.337,2.145 1.881,1.428 2.825,3.699 2.825,6.818 l 0,26.511 c 0,1.816 0.616,3.376 1.852,4.678 C -10.366,-0.651 -8.771,0 -6.824,0 L 0,0 Z" /></g><g
           transform="translate(572.5518,127.0713)"
           id="g56"><path
             id="path58"
             style="fill:#FFFFFF;fill-opacity:1;fill-rule:nonzero;stroke:none"
             d="m 0,0 7.018,0 c 1.817,0 3.377,-0.62 4.675,-1.853 1.298,-1.236 1.952,-2.763 1.952,-4.581 l 0,-60.618 L 0,-67.052 0,0 Z" /></g></g></g></g></svg>
